<mxfile host="app.diagrams.net" modified="2021-02-04T07:14:48.879Z" agent="5.0 (X11; Linux x86_64) AppleWebKit/537.36 (KHTML, like Gecko) Chrome/85.0.4183.83 Safari/537.36" etag="EnX7Fc-UuHhRF1N9lAlJ" version="14.2.9" type="github">
  <diagram id="YKBI6dlFaH0GNlwowfTK" name="Page-1">
    <mxGraphModel dx="1347" dy="796" grid="1" gridSize="10" guides="1" tooltips="1" connect="1" arrows="1" fold="1" page="1" pageScale="1" pageWidth="1654" pageHeight="1169" math="0" shadow="0">
      <root>
        <mxCell id="0" />
        <mxCell id="1" parent="0" />
        <mxCell id="BhgGmAntoUS51m2K5h6H-14" value="" style="rounded=1;whiteSpace=wrap;html=1;gradientColor=none;" vertex="1" parent="1">
          <mxGeometry x="290" y="85" width="250" height="110" as="geometry" />
        </mxCell>
        <mxCell id="BhgGmAntoUS51m2K5h6H-1" value="" style="shape=actor;whiteSpace=wrap;html=1;" vertex="1" parent="1">
          <mxGeometry x="300" y="100" width="40" height="60" as="geometry" />
        </mxCell>
        <mxCell id="BhgGmAntoUS51m2K5h6H-2" value="" style="shape=actor;whiteSpace=wrap;html=1;" vertex="1" parent="1">
          <mxGeometry x="355" y="100" width="40" height="60" as="geometry" />
        </mxCell>
        <mxCell id="BhgGmAntoUS51m2K5h6H-3" value="" style="shape=actor;whiteSpace=wrap;html=1;" vertex="1" parent="1">
          <mxGeometry x="484" y="100" width="40" height="60" as="geometry" />
        </mxCell>
        <mxCell id="BhgGmAntoUS51m2K5h6H-4" value="visitor" style="text;html=1;resizable=0;autosize=1;align=center;verticalAlign=middle;points=[];fillColor=none;strokeColor=none;rounded=0;" vertex="1" parent="1">
          <mxGeometry x="295" y="130" width="50" height="20" as="geometry" />
        </mxCell>
        <mxCell id="BhgGmAntoUS51m2K5h6H-5" value="assist doc" style="text;html=1;resizable=0;autosize=1;align=center;verticalAlign=middle;points=[];fillColor=none;strokeColor=none;rounded=0;" vertex="1" parent="1">
          <mxGeometry x="340" y="130" width="70" height="20" as="geometry" />
        </mxCell>
        <mxCell id="BhgGmAntoUS51m2K5h6H-6" value="doctor" style="text;html=1;resizable=0;autosize=1;align=center;verticalAlign=middle;points=[];fillColor=none;strokeColor=none;rounded=0;" vertex="1" parent="1">
          <mxGeometry x="479" y="130" width="50" height="20" as="geometry" />
        </mxCell>
        <mxCell id="BhgGmAntoUS51m2K5h6H-8" value="browser" style="text;html=1;resizable=0;autosize=1;align=center;verticalAlign=middle;points=[];fillColor=none;strokeColor=none;rounded=0;" vertex="1" parent="1">
          <mxGeometry x="380" y="65" width="60" height="20" as="geometry" />
        </mxCell>
        <mxCell id="BhgGmAntoUS51m2K5h6H-12" value="" style="endArrow=none;html=1;" edge="1" parent="1">
          <mxGeometry width="50" height="50" relative="1" as="geometry">
            <mxPoint x="409" y="420" as="sourcePoint" />
            <mxPoint x="409" y="196" as="targetPoint" />
          </mxGeometry>
        </mxCell>
        <mxCell id="BhgGmAntoUS51m2K5h6H-13" value="" style="endArrow=none;html=1;exitX=0.518;exitY=0.082;exitDx=0;exitDy=0;exitPerimeter=0;" edge="1" parent="1" source="BhgGmAntoUS51m2K5h6H-17">
          <mxGeometry width="50" height="50" relative="1" as="geometry">
            <mxPoint x="839" y="370" as="sourcePoint" />
            <mxPoint x="838.5" y="195" as="targetPoint" />
          </mxGeometry>
        </mxCell>
        <mxCell id="BhgGmAntoUS51m2K5h6H-15" value="" style="rounded=1;whiteSpace=wrap;html=1;gradientColor=none;" vertex="1" parent="1">
          <mxGeometry x="709" y="85" width="250" height="110" as="geometry" />
        </mxCell>
        <mxCell id="BhgGmAntoUS51m2K5h6H-10" value="server" style="text;html=1;resizable=0;autosize=1;align=center;verticalAlign=middle;points=[];fillColor=none;strokeColor=none;rounded=0;" vertex="1" parent="1">
          <mxGeometry x="809" y="130" width="50" height="20" as="geometry" />
        </mxCell>
        <mxCell id="BhgGmAntoUS51m2K5h6H-16" value="" style="rounded=1;whiteSpace=wrap;html=1;gradientColor=none;" vertex="1" parent="1">
          <mxGeometry x="290" y="421" width="250" height="110" as="geometry" />
        </mxCell>
        <mxCell id="BhgGmAntoUS51m2K5h6H-17" value="" style="rounded=1;whiteSpace=wrap;html=1;gradientColor=none;" vertex="1" parent="1">
          <mxGeometry x="709" y="421" width="250" height="110" as="geometry" />
        </mxCell>
        <mxCell id="BhgGmAntoUS51m2K5h6H-18" value="" style="endArrow=classic;html=1;" edge="1" parent="1">
          <mxGeometry width="50" height="50" relative="1" as="geometry">
            <mxPoint x="410" y="230" as="sourcePoint" />
            <mxPoint x="840" y="230" as="targetPoint" />
          </mxGeometry>
        </mxCell>
        <mxCell id="BhgGmAntoUS51m2K5h6H-19" value="load" style="text;html=1;resizable=0;autosize=1;align=center;verticalAlign=middle;points=[];fillColor=none;strokeColor=none;rounded=0;" vertex="1" parent="1">
          <mxGeometry x="524" y="210" width="40" height="20" as="geometry" />
        </mxCell>
        <mxCell id="BhgGmAntoUS51m2K5h6H-20" value="172.16.19.201" style="text;html=1;resizable=0;autosize=1;align=center;verticalAlign=middle;points=[];fillColor=none;strokeColor=none;rounded=0;" vertex="1" parent="1">
          <mxGeometry x="600" y="210" width="90" height="20" as="geometry" />
        </mxCell>
      </root>
    </mxGraphModel>
  </diagram>
</mxfile>
